<svg fill="#000000" xmlns="http://www.w3.org/2000/svg" viewBox="0 0 24 24" width="24px" height="24px"><path d="M 13.847656 3 C 13.800781 3.015625 13.753906 3.066406 13.714844 3.085938 C 13.472656 3.207031 13.238281 3.359375 13 3.5 L 13 3.617188 C 13.238281 3.738281 13.476563 3.867188 13.71875 3.976563 C 13.8125 4.019531 13.914063 4.03125 13.964844 3.789063 C 14.007813 3.578125 14.011719 3.355469 13.96875 3.152344 C 13.9375 3.015625 13.894531 2.988281 13.847656 3 Z M 14 4 C 13.609375 4.828125 13.1875 6.140625 12.75 6.957031 C 12.894531 6.988281 13.015625 7 13.140625 7 C 13.726563 7 14.3125 7 14.898438 7 C 15.296875 6.996094 15.316406 6.976563 15.152344 6.640625 C 14.8125 5.960938 14.453125 4.785156 14.105469 4.109375 C 14.085938 4.070313 14.074219 4.019531 14 4 Z M 10.992188 7.042969 C 10.980469 7.042969 10.96875 7.042969 10.957031 7.046875 C 4.820313 7.574219 0 12.730469 0 19 L 0 20 L 0.421875 20 C 0.472656 20.007813 0.527344 20.007813 0.582031 20 L 1 20 L 1 19.535156 C 1 19.523438 1 19.511719 1 19.5 L 1 19 C 1 13.242188 5.414063 8.527344 11.042969 8.039063 C 11.308594 8.015625 11.511719 7.785156 11.496094 7.515625 C 11.484375 7.25 11.261719 7.039063 10.992188 7.042969 Z M 16.5 7.910156 C 16.484375 7.910156 16.46875 7.910156 16.453125 7.914063 C 16.21875 7.929688 16.03125 8.105469 15.996094 8.335938 C 15.960938 8.566406 16.089844 8.789063 16.304688 8.875 C 20.238281 10.550781 23 14.449219 23 19 L 23 20 L 23.421875 20 C 23.472656 20.007813 23.527344 20.007813 23.582031 20 L 24 20 L 24 19.535156 C 24 19.523438 24 19.511719 24 19.5 L 24 19 C 24 14.042969 20.992188 9.78125 16.695313 7.953125 C 16.632813 7.925781 16.570313 7.910156 16.5 7.910156 Z M 13.488281 8 C 13.335938 8 13.15625 8.144531 13.101563 8.203125 C 13.027344 8.285156 12.992188 8.375 12.988281 8.46875 C 12.988281 8.535156 13.007813 8.601563 13.035156 8.671875 C 13.097656 8.804688 13.152344 8.917969 13.210938 9.007813 C 13.191406 9.007813 13.171875 9.007813 13.15625 9.007813 C 13.046875 9.003906 13.011719 9.039063 13 9.140625 L 13 10.050781 C 13 10.191406 12.972656 10.152344 12.972656 10.402344 C 12.972656 10.527344 12.027344 10.503906 11.894531 10.5 C 11.753906 10.5 11.71875 10.445313 11.714844 10.371094 C 11.5625 9.953125 11.589844 10.070313 11.429688 9.707031 C 11.382813 9.601563 11.3125 9.492188 11.191406 9.5 C 11.082031 9.503906 11.019531 9.625 10.992188 9.722656 C 10.890625 10.105469 10.792969 10.179688 10.609375 10.585938 C 10.605469 10.640625 10.566406 10.691406 10.539063 10.742188 C 10.464844 10.867188 10.492188 10.941406 10.636719 10.964844 C 10.660156 10.96875 10.6875 10.964844 10.710938 10.96875 C 10.695313 10.988281 10.683594 11.011719 10.6875 11.0625 C 10.699219 11.363281 10.542969 11.855469 10.511719 12.15625 C 10.484375 12.445313 10.328125 12.777344 10.105469 13 L 9 13 C 8.902344 13 9.011719 13.382813 8.90625 13.488281 C 8.84375 13.554688 8.773438 13.652344 8.671875 13.589844 C 8.5625 13.523438 8.578125 13.410156 8.613281 13.304688 C 8.625 13.273438 8.640625 13.246094 8.65625 13.21875 C 8.753906 13.035156 8.738281 13.003906 8.535156 13 L 6.585938 13 C 6.507813 13 6.484375 13.003906 6.511719 13.085938 C 6.582031 13.304688 6.613281 13.527344 6.617188 13.753906 C 6.621094 13.992188 6.582031 14.394531 6.515625 14.917969 L 6.519531 14.917969 C 6.511719 15.046875 6.507813 15.175781 6.5 15.351563 C 6.492188 15.46875 6.355469 15.996094 6 16 C 5.523438 16 5.03125 16 4.53125 16 C 4.4375 16 4.351563 16 4.257813 16 C 4.183594 16 4.117188 16.015625 4.0625 16.09375 C 3.902344 16.320313 3.726563 16.539063 3.5625 16.765625 C 3.464844 16.90625 3.472656 16.917969 3.648438 16.9375 C 4.15625 17 3.792969 17 4 17 C 3.890625 17 3.875 17.515625 3.875 17.640625 C 3.882813 17.828125 3.796875 18.167969 3.765625 18.347656 C 3.746094 18.476563 3.667969 18.855469 3.601563 19.152344 C 3.570313 19.34375 3.527344 19.65625 3.484375 19.84375 C 3.460938 19.953125 3.476563 20 3.609375 20 L 10 20 L 10 18 C 10 16.898438 10.898438 16 12 16 C 13.101563 16 14 16.898438 14 18 L 14 20 L 20.363281 20 C 20.5 20 20.515625 19.953125 20.488281 19.84375 C 20.449219 19.65625 20.40625 19.34375 20.375 19.152344 C 20.347656 18.804688 20.230469 18.476563 20.210938 18.347656 C 20.183594 18.167969 20.09375 17.828125 20.097656 17.640625 C 20.101563 17.613281 20.097656 17.589844 20.058594 17.566406 C 20.050781 17.261719 19.972656 17 20 17 C 20.003906 17 20.003906 16.988281 20.003906 16.988281 C 20.109375 16.984375 20.210938 16.980469 20.328125 16.96875 C 20.507813 16.949219 20.539063 16.902344 20.453125 16.746094 C 20.355469 16.5625 20.222656 16.402344 20.101563 16.238281 C 20.007813 16.113281 19.890625 16.050781 19.75 16.023438 C 19.621094 15.6875 19.488281 15.378906 19.457031 15.3125 C 19.378906 15.132813 19.40625 14.984375 19.34375 14.796875 C 19.316406 14.710938 19.261719 14.640625 19.195313 14.578125 C 19.101563 14.488281 19.003906 14.472656 18.90625 14.570313 C 18.84375 14.628906 18.804688 14.6875 18.738281 14.746094 C 18.683594 14.792969 18.617188 14.804688 18.582031 14.730469 C 18.496094 14.550781 18.339844 14.503906 18.171875 14.5 L 17.730469 14.5 C 17.292969 14.5 17.027344 13.953125 16.96875 13.84375 C 16.875 13.660156 17.15625 13.460938 17.09375 13.265625 C 17.046875 13.113281 16.953125 13.011719 16.785156 13 C 16.890625 13 16.953125 12.964844 16.976563 12.839844 C 17.003906 12.6875 17.015625 12.542969 16.96875 12.398438 C 16.941406 12.292969 16.878906 12.082031 16.878906 12.082031 C 16.878906 12.082031 16.878906 12.078125 16.878906 12.078125 C 16.867188 12.035156 16.550781 11.078125 16.5 11 C 16.484375 11.046875 16.023438 12.296875 16.015625 12.324219 C 15.992188 12.386719 16 12.453125 16.011719 12.519531 C 16.078125 12.960938 16.109375 13 16.503906 13 L 16 13 C 15.5 13 15.292969 12.277344 15.292969 12.277344 C 15.292969 12.277344 15.300781 12.09375 15.21875 11.8125 C 15.140625 11.53125 15 11.1875 15 11 C 14.992188 10.660156 15.046875 9.3125 15 9.136719 C 14.972656 9.035156 14.929688 9.003906 14.828125 9.007813 C 14.921875 8.894531 14.996094 8.6875 15 8.492188 C 15.003906 8.375 14.996094 8.257813 14.917969 8.164063 C 14.886719 8.109375 14.734375 8 14.550781 8 Z M 4.53125 16 C 4.652344 15.984375 4.789063 16.007813 4.921875 15.953125 C 4.980469 15.929688 5.015625 15.894531 4.988281 15.75 C 4.882813 15.210938 4.765625 14.679688 4.613281 14.1875 C 4.527344 13.914063 4.34375 13.945313 4.273438 14.242188 C 4.164063 14.707031 4.085938 15.195313 4.007813 15.6875 C 3.988281 15.828125 4 15.90625 4.085938 15.941406 C 4.230469 16 4.375 15.992188 4.53125 16 Z M 7.492188 13 C 7.632813 12.996094 7.773438 13.007813 7.914063 12.964844 C 8.015625 12.9375 8.019531 12.9375 7.972656 12.699219 C 7.910156 12.367188 7.839844 12.042969 7.773438 11.714844 C 7.734375 11.53125 7.699219 11.347656 7.644531 11.191406 C 7.546875 10.917969 7.367188 10.9375 7.296875 11.242188 C 7.183594 11.730469 7.089844 12.246094 7.007813 12.777344 C 6.992188 12.902344 7 12.949219 7.054688 12.964844 C 7.203125 13 7.347656 12.996094 7.492188 13 Z M 9.394531 11 C 9.320313 10.996094 9.304688 11.09375 9.289063 11.15625 C 9.179688 11.574219 9.109375 12 9.046875 12.429688 C 8.957031 13.007813 8.953125 13.007813 9.484375 12.996094 C 9.589844 12.996094 9.699219 12.996094 9.804688 12.996094 C 9.984375 13 10.035156 12.921875 9.976563 12.71875 C 9.828125 12.1875 9.675781 11.660156 9.484375 11.152344 C 9.460938 11.09375 9.457031 11.003906 9.394531 11 Z M 18.523438 12 C 18.480469 11.992188 18.46875 12.058594 18.453125 12.105469 C 18.398438 12.289063 18.050781 13.65625 18.003906 13.863281 C 17.988281 13.941406 18.007813 13.96875 18.078125 13.976563 C 18.226563 13.992188 18.371094 14.003906 18.515625 13.996094 C 18.621094 13.996094 18.726563 14.003906 18.832031 13.996094 C 19.015625 13.984375 19.019531 13.980469 18.980469 13.796875 C 18.960938 13.714844 18.945313 13.636719 18.921875 13.5625 C 18.894531 13.464844 18.609375 12.367188 18.566406 12.113281 C 18.558594 12.070313 18.558594 12.007813 18.523438 12 Z"/></svg>